<svg width="23" height="22" viewBox="0 0 23 22" fill="none" xmlns="http://www.w3.org/2000/svg">
<path d="M20.6451 8.41249C20.5874 8.24267 20.4813 8.09346 20.3398 7.98327C20.1983 7.87309 20.0277 7.80674 19.8489 7.79244L14.6198 7.37693L12.357 2.36791C12.2849 2.20658 12.1677 2.06956 12.0195 1.97337C11.8712 1.87719 11.6984 1.82595 11.5217 1.82586C11.345 1.82576 11.172 1.8768 11.0237 1.97282C10.8754 2.06885 10.758 2.20574 10.6858 2.367L8.42295 7.37693L3.1938 7.79244C3.0181 7.80635 2.85014 7.87059 2.71001 7.97747C2.56987 8.08435 2.46349 8.22933 2.40359 8.39508C2.3437 8.56084 2.33282 8.74034 2.37227 8.91211C2.41172 9.08388 2.49982 9.24064 2.62603 9.36366L6.49033 13.1307L5.12366 19.0487C5.08216 19.2279 5.09546 19.4153 5.16183 19.5868C5.2282 19.7583 5.34458 19.9059 5.49587 20.0104C5.64716 20.1149 5.82637 20.1715 6.01024 20.1729C6.19411 20.1743 6.37416 20.1205 6.52702 20.0182L11.5214 16.6887L16.5157 20.0182C16.6719 20.122 16.8562 20.1754 17.0437 20.1713C17.2312 20.1672 17.4129 20.1057 17.5645 19.9953C17.716 19.8848 17.8301 19.7305 17.8913 19.5533C17.9526 19.376 17.9581 19.1843 17.9071 19.0038L16.2295 13.1335L20.3901 9.38934C20.6625 9.14352 20.7625 8.76012 20.6451 8.41249Z" fill="#F3CD03"/>
</svg>
