<svg width="23" height="22" viewBox="0 0 23 22" fill="none" xmlns="http://www.w3.org/2000/svg">
<path d="M20.1719 8.41249C20.1142 8.24267 20.0081 8.09346 19.8666 7.98327C19.7251 7.87309 19.5545 7.80674 19.3757 7.79244L14.1466 7.37693L11.8838 2.36791C11.8117 2.20658 11.6945 2.06956 11.5463 1.97337C11.398 1.87719 11.2252 1.82595 11.0485 1.82586C10.8718 1.82576 10.6988 1.8768 10.5505 1.97282C10.4022 2.06885 10.2848 2.20574 10.2126 2.367L7.94974 7.37693L2.72059 7.79244C2.5449 7.80635 2.37694 7.87059 2.2368 7.97747C2.09666 8.08435 1.99028 8.22933 1.93039 8.39508C1.87049 8.56084 1.85962 8.74034 1.89906 8.91211C1.93851 9.08388 2.02661 9.24064 2.15282 9.36366L6.01713 13.1307L4.65045 19.0487C4.60895 19.2279 4.62225 19.4153 4.68863 19.5868C4.755 19.7583 4.87138 19.9059 5.02267 20.0104C5.17395 20.1149 5.35316 20.1715 5.53703 20.1729C5.72091 20.1743 5.90096 20.1205 6.05382 20.0182L11.0482 16.6887L16.0425 20.0182C16.1987 20.122 16.383 20.1754 16.5705 20.1713C16.758 20.1672 16.9397 20.1057 17.0913 19.9953C17.2428 19.8848 17.3569 19.7305 17.4181 19.5533C17.4794 19.376 17.4849 19.1843 17.4339 19.0038L15.7563 13.1335L19.9169 9.38934C20.1893 9.14352 20.2893 8.76012 20.1719 8.41249Z" fill="#F3CD03"/>
</svg>
